<svg width="319" height="183" viewBox="0 0 319 183" fill="none" xmlns="http://www.w3.org/2000/svg">
<rect x="7.1452" y="18.6832" width="304" height="144" rx="25" fill="white"/>
<rect y="32.2167" width="304" height="151" rx="25" transform="rotate(-6.0834 0 32.2167)" fill="white" fill-opacity="0.75"/>
<path d="M237.433 71.4272V69.0192L246.841 55.5232H250.705V68.6552H253.309V71.4272H250.705V75.6832H247.569V71.4272H237.433ZM247.709 58.7712L241.101 68.6552H247.709V58.7712ZM257.662 75.8792C257.083 75.8792 256.598 75.6832 256.206 75.2912C255.814 74.8992 255.618 74.4138 255.618 73.8352C255.618 73.2565 255.814 72.7712 256.206 72.3792C256.598 71.9872 257.083 71.7912 257.662 71.7912C258.222 71.7912 258.698 71.9872 259.09 72.3792C259.482 72.7712 259.678 73.2565 259.678 73.8352C259.678 74.4138 259.482 74.8992 259.09 75.2912C258.698 75.6832 258.222 75.8792 257.662 75.8792ZM275.868 58.0152H266.488V63.5872C266.88 63.0645 267.459 62.6258 268.224 62.2712C269.008 61.9165 269.839 61.7392 270.716 61.7392C272.284 61.7392 273.553 62.0752 274.524 62.7472C275.513 63.4192 276.213 64.2685 276.624 65.2952C277.053 66.3218 277.268 67.4045 277.268 68.5432C277.268 69.9245 276.997 71.1565 276.456 72.2392C275.933 73.3032 275.14 74.1432 274.076 74.7592C273.031 75.3752 271.743 75.6832 270.212 75.6832C268.177 75.6832 266.544 75.1792 265.312 74.1712C264.08 73.1632 263.343 71.8285 263.1 70.1672H266.208C266.413 71.0445 266.871 71.7445 267.58 72.2672C268.289 72.7712 269.176 73.0232 270.24 73.0232C271.565 73.0232 272.555 72.6218 273.208 71.8192C273.88 71.0165 274.216 69.9525 274.216 68.6272C274.216 67.2832 273.88 66.2565 273.208 65.5472C272.536 64.8192 271.547 64.4552 270.24 64.4552C269.325 64.4552 268.551 64.6885 267.916 65.1552C267.3 65.6032 266.852 66.2192 266.572 67.0032H263.548V55.2152H275.868V58.0152Z" fill="#FF7A04"/>
<path d="M54.6452 51.6832L57.9007 61.7024L68.4355 61.7024L59.9126 67.8947L63.1681 77.9139L54.6452 71.7217L46.1223 77.9139L49.3778 67.8947L40.8549 61.7024L51.3897 61.7024L54.6452 51.6832Z" fill="#FF7A04"/>
<path d="M90.6452 51.6832L93.9007 61.7024L104.436 61.7024L95.9126 67.8947L99.1681 77.9139L90.6452 71.7217L82.1223 77.9139L85.3778 67.8947L76.8549 61.7024L87.3897 61.7024L90.6452 51.6832Z" fill="#FF7A04"/>
<path d="M126.145 51.6832L129.288 61.7024L139.46 61.7024L131.231 67.8947L134.374 77.9139L126.145 71.7217L117.916 77.9139L121.059 67.8947L112.83 61.7024L123.002 61.7024L126.145 51.6832Z" fill="#FF7A04"/>
<path d="M161.645 51.6832L164.901 61.7024L175.436 61.7024L166.913 67.8947L170.168 77.9139L161.645 71.7217L153.122 77.9139L156.378 67.8947L147.855 61.7024L158.39 61.7024L161.645 51.6832Z" fill="#FF7A04"/>
<path d="M197.145 52.6832V62.6143V72.5454L188.493 78.6832L191.798 68.7521L183.145 62.6143H193.84L197.145 52.6832Z" fill="#FF7A04"/>
<path d="M53.8652 109.539H45.8252V114.315C46.1612 113.867 46.6572 113.491 47.3132 113.187C47.9852 112.883 48.6972 112.731 49.4492 112.731C50.7932 112.731 51.8812 113.019 52.7132 113.595C53.5612 114.171 54.1612 114.899 54.5132 115.779C54.8812 116.659 55.0652 117.587 55.0652 118.563C55.0652 119.747 54.8332 120.803 54.3692 121.731C53.9212 122.643 53.2412 123.363 52.3292 123.891C51.4332 124.419 50.3292 124.683 49.0172 124.683C47.2732 124.683 45.8732 124.251 44.8172 123.387C43.7612 122.523 43.1292 121.379 42.9212 119.955H45.5852C45.7612 120.707 46.1532 121.307 46.7612 121.755C47.3692 122.187 48.1292 122.403 49.0412 122.403C50.1772 122.403 51.0252 122.059 51.5852 121.371C52.1612 120.683 52.4492 119.771 52.4492 118.635C52.4492 117.483 52.1612 116.603 51.5852 115.995C51.0092 115.371 50.1612 115.059 49.0412 115.059C48.2572 115.059 47.5932 115.259 47.0492 115.659C46.5212 116.043 46.1372 116.571 45.8972 117.243H43.3052V107.139H53.8652V109.539ZM67.4653 124.683L61.0093 117.219V124.683H58.2733V108.003H61.0093V115.611L67.4893 108.003H70.9213L63.6733 116.355L71.0413 124.683H67.4653ZM86.3488 117.171H81.5008V122.139H78.9568V117.171H74.1088V114.867H78.9568V109.899H81.5008V114.867H86.3488V117.171ZM110.148 108.003V124.683H107.412V117.387H99.564V124.683H96.828V108.003H99.564V115.155H107.412V108.003H110.148ZM112.838 118.011C112.838 116.683 113.11 115.507 113.654 114.483C114.214 113.459 114.966 112.667 115.91 112.107C116.87 111.531 117.926 111.243 119.078 111.243C120.118 111.243 121.022 111.451 121.79 111.867C122.574 112.267 123.198 112.771 123.662 113.379V111.459H126.422V124.683H123.662V122.715C123.198 123.339 122.566 123.859 121.766 124.275C120.966 124.691 120.054 124.899 119.03 124.899C117.894 124.899 116.854 124.611 115.91 124.035C114.966 123.443 114.214 122.627 113.654 121.587C113.11 120.531 112.838 119.339 112.838 118.011ZM123.662 118.059C123.662 117.147 123.47 116.355 123.086 115.683C122.718 115.011 122.23 114.499 121.622 114.147C121.014 113.795 120.358 113.619 119.654 113.619C118.95 113.619 118.294 113.795 117.686 114.147C117.078 114.483 116.582 114.987 116.198 115.659C115.83 116.315 115.646 117.099 115.646 118.011C115.646 118.923 115.83 119.723 116.198 120.411C116.582 121.099 117.078 121.627 117.686 121.995C118.31 122.347 118.966 122.523 119.654 122.523C120.358 122.523 121.014 122.347 121.622 121.995C122.23 121.643 122.718 121.131 123.086 120.459C123.47 119.771 123.662 118.971 123.662 118.059ZM132.752 113.403C133.216 112.795 133.848 112.283 134.648 111.867C135.448 111.451 136.352 111.243 137.36 111.243C138.512 111.243 139.56 111.531 140.504 112.107C141.464 112.667 142.216 113.459 142.76 114.483C143.304 115.507 143.576 116.683 143.576 118.011C143.576 119.339 143.304 120.531 142.76 121.587C142.216 122.627 141.464 123.443 140.504 124.035C139.56 124.611 138.512 124.899 137.36 124.899C136.352 124.899 135.456 124.699 134.672 124.299C133.888 123.883 133.248 123.371 132.752 122.763V130.971H130.016V111.459H132.752V113.403ZM140.792 118.011C140.792 117.099 140.6 116.315 140.216 115.659C139.848 114.987 139.352 114.483 138.728 114.147C138.12 113.795 137.464 113.619 136.76 113.619C136.072 113.619 135.416 113.795 134.792 114.147C134.184 114.499 133.688 115.011 133.304 115.683C132.936 116.355 132.752 117.147 132.752 118.059C132.752 118.971 132.936 119.771 133.304 120.459C133.688 121.131 134.184 121.643 134.792 121.995C135.416 122.347 136.072 122.523 136.76 122.523C137.464 122.523 138.12 122.347 138.728 121.995C139.352 121.627 139.848 121.099 140.216 120.411C140.6 119.723 140.792 118.923 140.792 118.011ZM149.017 113.403C149.481 112.795 150.113 112.283 150.913 111.867C151.713 111.451 152.617 111.243 153.625 111.243C154.777 111.243 155.825 111.531 156.769 112.107C157.729 112.667 158.481 113.459 159.025 114.483C159.569 115.507 159.841 116.683 159.841 118.011C159.841 119.339 159.569 120.531 159.025 121.587C158.481 122.627 157.729 123.443 156.769 124.035C155.825 124.611 154.777 124.899 153.625 124.899C152.617 124.899 151.721 124.699 150.937 124.299C150.153 123.883 149.513 123.371 149.017 122.763V130.971H146.281V111.459H149.017V113.403ZM157.057 118.011C157.057 117.099 156.865 116.315 156.481 115.659C156.113 114.987 155.617 114.483 154.993 114.147C154.385 113.795 153.729 113.619 153.025 113.619C152.337 113.619 151.681 113.795 151.057 114.147C150.449 114.499 149.953 115.011 149.569 115.683C149.201 116.355 149.017 117.147 149.017 118.059C149.017 118.971 149.201 119.771 149.569 120.459C149.953 121.131 150.449 121.643 151.057 121.995C151.681 122.347 152.337 122.523 153.025 122.523C153.729 122.523 154.385 122.347 154.993 121.995C155.617 121.627 156.113 121.099 156.481 120.411C156.865 119.723 157.057 118.923 157.057 118.011ZM174.451 111.459L166.339 130.899H163.507L166.195 124.467L160.987 111.459H164.035L167.755 121.539L171.619 111.459H174.451ZM191.414 124.683L187.574 118.011H185.486V124.683H182.75V108.003H188.51C189.79 108.003 190.87 108.227 191.75 108.675C192.646 109.123 193.31 109.723 193.742 110.475C194.19 111.227 194.414 112.067 194.414 112.995C194.414 114.083 194.094 115.075 193.454 115.971C192.83 116.851 191.862 117.451 190.55 117.771L194.678 124.683H191.414ZM185.486 115.827H188.51C189.534 115.827 190.302 115.571 190.814 115.059C191.342 114.547 191.606 113.859 191.606 112.995C191.606 112.131 191.35 111.459 190.838 110.979C190.326 110.483 189.55 110.235 188.51 110.235H185.486V115.827ZM210.034 117.747C210.034 118.243 210.002 118.691 209.938 119.091H199.834C199.914 120.147 200.306 120.995 201.01 121.635C201.714 122.275 202.578 122.595 203.602 122.595C205.074 122.595 206.114 121.979 206.722 120.747H209.674C209.274 121.963 208.546 122.963 207.49 123.747C206.45 124.515 205.154 124.899 203.602 124.899C202.338 124.899 201.202 124.619 200.194 124.059C199.202 123.483 198.418 122.683 197.842 121.659C197.282 120.619 197.002 119.419 197.002 118.059C197.002 116.699 197.274 115.507 197.818 114.483C198.378 113.443 199.154 112.643 200.146 112.083C201.154 111.523 202.306 111.243 203.602 111.243C204.85 111.243 205.962 111.515 206.938 112.059C207.914 112.603 208.674 113.371 209.218 114.363C209.762 115.339 210.034 116.467 210.034 117.747ZM207.178 116.883C207.162 115.875 206.802 115.067 206.098 114.459C205.394 113.851 204.522 113.547 203.482 113.547C202.538 113.547 201.73 113.851 201.058 114.459C200.386 115.051 199.986 115.859 199.858 116.883H207.178ZM217.838 122.235L221.582 111.459H224.486L219.446 124.683H216.182L211.166 111.459H214.094L217.838 122.235ZM227.947 109.707C227.451 109.707 227.035 109.539 226.699 109.203C226.363 108.867 226.195 108.451 226.195 107.955C226.195 107.459 226.363 107.043 226.699 106.707C227.035 106.371 227.451 106.203 227.947 106.203C228.427 106.203 228.835 106.371 229.171 106.707C229.507 107.043 229.675 107.459 229.675 107.955C229.675 108.451 229.507 108.867 229.171 109.203C228.835 109.539 228.427 109.707 227.947 109.707ZM229.291 111.459V124.683H226.555V111.459H229.291ZM245.003 117.747C245.003 118.243 244.971 118.691 244.907 119.091H234.803C234.883 120.147 235.275 120.995 235.979 121.635C236.683 122.275 237.547 122.595 238.571 122.595C240.043 122.595 241.083 121.979 241.691 120.747H244.643C244.243 121.963 243.515 122.963 242.459 123.747C241.419 124.515 240.123 124.899 238.571 124.899C237.307 124.899 236.171 124.619 235.163 124.059C234.171 123.483 233.387 122.683 232.811 121.659C232.251 120.619 231.971 119.419 231.971 118.059C231.971 116.699 232.243 115.507 232.787 114.483C233.347 113.443 234.123 112.643 235.115 112.083C236.123 111.523 237.275 111.243 238.571 111.243C239.819 111.243 240.931 111.515 241.907 112.059C242.883 112.603 243.643 113.371 244.187 114.363C244.731 115.339 245.003 116.467 245.003 117.747ZM242.147 116.883C242.131 115.875 241.771 115.067 241.067 114.459C240.363 113.851 239.491 113.547 238.451 113.547C237.507 113.547 236.699 113.851 236.027 114.459C235.355 115.051 234.955 115.859 234.827 116.883H242.147ZM265.455 111.459L261.351 124.683H258.471L255.807 114.915L253.143 124.683H250.263L246.135 111.459H248.919L251.679 122.091L254.487 111.459H257.343L260.031 122.043L262.767 111.459H265.455Z" fill="#FF7A04"/>
<line x1="218.645" y1="56.6832" x2="218.645" y2="75.6832" stroke="#FF7A04"/>
</svg>
